<?xml version="1.0" encoding="utf-8"?>
<!-- Generator: Adobe Illustrator 24.2.1, SVG Export Plug-In . SVG Version: 6.00 Build 0)  -->
<svg version="1.1" id="Capa_1" xmlns="http://www.w3.org/2000/svg" xmlns:xlink="http://www.w3.org/1999/xlink" x="0px" y="0px"
	 viewBox="0 0 100 100" style="enable-background:new 0 0 100 100;" xml:space="preserve">
<style type="text/css">
	.st0{fill:#E63E38;}
</style>
<g>
	<path class="st0" d="M48.5,1.6c1,0,2.1,0,3.1,0c0.1,0,0.2,0.1,0.3,0.1c1.8,0.2,3.7,0.3,5.5,0.5c5,0.7,9.8,2.2,14.3,4.5
		c10.2,5.2,17.7,13,22.4,23.3c2.3,5,3.7,10.4,4.1,15.9c0.1,0.8,0.1,1.6,0.2,2.4c0,1,0,2.1,0,3.1c0,0.2-0.1,0.3-0.1,0.5
		c-0.2,1.8-0.3,3.6-0.5,5.3c-0.7,5-2.2,9.8-4.5,14.3C88.1,81.8,80.3,89.3,69.9,94c-5.1,2.3-10.4,3.7-15.9,4.1
		c-0.8,0.1-1.6,0.1-2.4,0.2c-1,0-2.1,0-3.1,0c-0.1,0-0.2-0.1-0.3-0.1c-1.6-0.1-3.2-0.2-4.8-0.4c-5.4-0.7-10.6-2.3-15.4-4.9
		C17.8,87.7,10.4,79.8,5.7,69.4c-2.2-4.9-3.4-10-3.9-15.4c-0.1-0.8-0.1-1.6-0.2-2.4c0-1,0-2.1,0-3.1c0-0.2,0.1-0.3,0.1-0.5
		c0.1-1.6,0.2-3.1,0.4-4.7C2.9,37.9,4.5,32.7,7,27.9c5.3-10.1,13.2-17.5,23.6-22.2c4.9-2.2,10-3.4,15.4-3.9
		C46.8,1.8,47.6,1.7,48.5,1.6z M38.4,82.6c4.3,0,7.3-0.6,10.2-1.9c4.9-2.1,9-5.2,12.7-8.9c5.3-5.2,9.5-11.2,12.8-17.8
		c2.3-4.8,3.9-9.8,4.3-15.1c0.3-3.7-0.2-7.4-1.8-10.8c-2.8-6.2-7.6-9.8-14.4-10.5c-3.8-0.4-7.4,0.3-10.9,1.8
		c-4.4,2-8.2,4.8-11.6,8.1c-4.3,4.2-7.8,8.9-10.9,14c-2.4,3.9-4.5,8-5.7,12.5c-0.8,2.8-1.5,5.7-1.5,8.6c0,1.3,0.1,2.6,0.2,4
		c0.2,1.9,0.6,3.8,1.5,5.6C26.6,78.8,32.2,82.2,38.4,82.6z"/>
</g>
</svg>
